<svg width="40" height="27" viewBox="0 0 90 77" fill="none" xmlns="http://www.w3.org/2000/svg">
<path d="M72.1261 45.016V7.55499C72.1261 3.85299 69.1261 0.846987 65.4181 0.846987H6.70507C3.00007 0.843987 -0.00292969 3.84999 -0.00292969 7.55499V45.016C-0.00292969 48.721 3.00007 51.724 6.70507 51.724H17.8921V67.135L35.0041 51.724H65.4151C69.1261 51.724 72.1261 48.721 72.1261 45.016ZM83.2951 15.574H74.9011C74.9011 15.574 74.9011 45.49 74.9011 48.301C74.9011 51.112 71.2531 54.727 68.4421 54.727C65.6311 54.727 35.6071 54.892 35.6071 54.892C35.6071 58.597 38.6101 60.85 42.3151 60.85H55.2421L72.1081 76.156L72.0871 60.85H83.2951C87.0031 60.85 90.0031 58.597 90.0031 54.892V22.096C90.0031 18.394 87.0031 15.574 83.2951 15.574Z" fill="black"/>
</svg>
