<svg width="20" height="20" viewBox="0 0 20 20" fill="none" xmlns="http://www.w3.org/2000/svg">
<path d="M10 2.03125C8.42393 2.03125 6.88326 2.49861 5.5728 3.37423C4.26235 4.24984 3.24097 5.49439 2.63784 6.95049C2.0347 8.40659 1.87689 10.0088 2.18437 11.5546C2.49185 13.1004 3.2508 14.5203 4.36525 15.6348C5.4797 16.7492 6.89959 17.5082 8.44538 17.8156C9.99116 18.1231 11.5934 17.9653 13.0495 17.3622C14.5056 16.759 15.7502 15.7377 16.6258 14.4272C17.5014 13.1167 17.9688 11.5761 17.9688 10C17.9664 7.88729 17.126 5.86179 15.6321 4.36788C14.1382 2.87396 12.1127 2.03363 10 2.03125ZM10 17.0312C8.60935 17.0312 7.24993 16.6189 6.09365 15.8463C4.93737 15.0737 4.03615 13.9755 3.50398 12.6907C2.9718 11.406 2.83255 9.9922 3.10386 8.62827C3.37516 7.26434 4.04482 6.01149 5.02816 5.02816C6.0115 4.04482 7.26435 3.37516 8.62827 3.10385C9.9922 2.83255 11.406 2.97179 12.6907 3.50397C13.9755 4.03615 15.0737 4.93736 15.8463 6.09365C16.6189 7.24993 17.0313 8.60935 17.0313 10C17.0291 11.8642 16.2877 13.6514 14.9695 14.9695C13.6514 16.2877 11.8642 17.0291 10 17.0312ZM13.654 12.1094C13.2834 12.7504 12.7507 13.2827 12.1093 13.6527C11.4679 14.0228 10.7405 14.2176 10 14.2176C9.25956 14.2176 8.53213 14.0228 7.89075 13.6528C7.24937 13.2828 6.71662 12.7505 6.34598 12.1095C6.31515 12.0562 6.29513 11.9974 6.28704 11.9364C6.27895 11.8753 6.28296 11.8133 6.29884 11.7538C6.31472 11.6944 6.34216 11.6386 6.37959 11.5898C6.41702 11.5409 6.46371 11.4999 6.51699 11.469C6.57027 11.4382 6.6291 11.4182 6.69012 11.4101C6.75115 11.402 6.81316 11.406 6.87263 11.4219C6.93211 11.4378 6.98787 11.4652 7.03673 11.5027C7.0856 11.5401 7.12662 11.5868 7.15744 11.6401C7.51554 12.2586 8.06496 12.7441 8.72292 13.0233C9.32438 13.2777 9.98813 13.3467 10.6291 13.2214C11.27 13.096 11.8589 12.7821 12.3202 12.3199C12.5232 12.117 12.6988 11.8884 12.8426 11.64C12.8734 11.5866 12.9144 11.5399 12.9632 11.5024C13.0121 11.4649 13.0679 11.4374 13.1274 11.4215C13.1869 11.4056 13.2489 11.4015 13.31 11.4096C13.3711 11.4177 13.4299 11.4377 13.4832 11.4686C13.5366 11.4994 13.5833 11.5405 13.6207 11.5894C13.6582 11.6383 13.6856 11.6941 13.7014 11.7536C13.7173 11.8131 13.7213 11.8752 13.7131 11.9362C13.705 11.9973 13.6849 12.0561 13.654 12.1094ZM6.40625 8.4375C6.40625 8.28298 6.45207 8.13194 6.53792 8.00346C6.62376 7.87498 6.74578 7.77485 6.88853 7.71572C7.03129 7.65659 7.18837 7.64112 7.33992 7.67126C7.49147 7.70141 7.63067 7.77581 7.73993 7.88507C7.84919 7.99433 7.9236 8.13354 7.95374 8.28509C7.98389 8.43663 7.96842 8.59372 7.90928 8.73647C7.85015 8.87923 7.75002 9.00124 7.62154 9.08709C7.49307 9.17293 7.34202 9.21875 7.1875 9.21875C6.98037 9.21852 6.78179 9.13614 6.63533 8.98967C6.48887 8.84321 6.40648 8.64463 6.40625 8.4375ZM12.0313 8.4375C12.0313 8.28298 12.0771 8.13194 12.1629 8.00346C12.2488 7.87498 12.3708 7.77485 12.5135 7.71572C12.6563 7.65659 12.8134 7.64112 12.9649 7.67126C13.1165 7.70141 13.2557 7.77581 13.3649 7.88507C13.4742 7.99433 13.5486 8.13354 13.5787 8.28509C13.6089 8.43663 13.5934 8.59372 13.5343 8.73647C13.4752 8.87923 13.375 9.00124 13.2465 9.08709C13.1181 9.17293 12.967 9.21875 12.8125 9.21875C12.6054 9.21852 12.4068 9.13614 12.2603 8.98967C12.1139 8.84321 12.0315 8.64463 12.0313 8.4375Z" fill="#B6BABE"/>
</svg>
