<?xml version="1.0" standalone="no"?>
<!DOCTYPE svg PUBLIC "-//W3C//DTD SVG 20010904//EN"
 "http://www.w3.org/TR/2001/REC-SVG-20010904/DTD/svg10.dtd">
<svg version="1.0" xmlns="http://www.w3.org/2000/svg"
 width="15" height="15" viewBox="0 0 920.000000 800.000000"
 preserveAspectRatio="xMidYMid meet">

<g transform="translate(0.000000,800.000000) scale(0.100000,-0.100000)"
fill="#000000" stroke="none">
<path d="M620 7973 c0 -4 7 -62 15 -128 8 -66 53 -433 100 -815 47 -382 121
-990 165 -1350 44 -360 94 -770 111 -910 16 -140 32 -264 34 -276 4 -17 109
84 564 537 308 307 579 575 601 596 l41 37 2825 -2825 2824 -2824 342 343 343
342 -2823 2823 c-1552 1552 -2822 2827 -2822 2832 1 6 267 277 593 603 470
470 588 594 572 597 -11 2 -114 16 -230 29 -115 14 -322 39 -460 56 -137 17
-322 39 -410 50 -88 11 -326 40 -530 65 -203 25 -480 58 -615 75 -770 94
-1150 140 -1192 146 -27 3 -48 2 -48 -3z"/>
</g>
</svg>
